<svg xmlns="http://www.w3.org/2000/svg" viewBox="0 0 80 80" fill="none">
  <path d="M22.8 52.7c-6.5-4.8-10-11.7-10-19.4 0-13.7 11.8-24.8 26.3-24.8 10.9 0 20.4 6.1 24.6 15" stroke="#FF9900" stroke-width="4" stroke-linecap="round"/>
  <path d="M20 47l-8 6 10 2-2-8z" fill="#FF9900"/>
  <path d="M25.5 40.2c0-2.7.5-5.2 1.4-7.5.9-2.3 2.3-4.4 4-6.1 1.7-1.7 3.8-3.1 6.1-4 2.3-.9 4.8-1.4 7.5-1.4 2.7 0 5.2.5 7.5 1.4 2.3.9 4.4 2.3 6.1 4 1.7 1.7 3.1 3.8 4 6.1.9 2.3 1.4 4.8 1.4 7.5" stroke="#232F3E" stroke-width="3"/>
  <path d="M24 56h32c6 0 10-4 10-10s-4-10-10-10h-2" stroke="#232F3E" stroke-width="3" stroke-linecap="round"/>
  <text x="40" y="65" text-anchor="middle" fill="#232F3E" font-family="Arial, sans-serif" font-size="14" font-weight="bold">AWS</text>
</svg>
